<?xml version="1.0" standalone="no"?><!DOCTYPE svg PUBLIC "-//W3C//DTD SVG 1.1//EN" "http://www.w3.org/Graphics/SVG/1.1/DTD/svg11.dtd"><svg t="1526264687394" class="icon" style="" viewBox="0 0 1024 1024" version="1.1" xmlns="http://www.w3.org/2000/svg" p-id="1909" xmlns:xlink="http://www.w3.org/1999/xlink" width="8" height="8"><defs><style type="text/css"></style></defs><path d="M950.834375 204.666875c-15.093750000000002-14.15625-38.8125-13.5-52.96875 1.6875l-499.6875 532.03125-273-268.96875c-14.71875-14.53125-38.53125-14.34375-53.0625 0.375-14.53125 14.71875-14.34375 38.53125 0.375 52.96875l300.375 295.875c0.09375 0.09375 0.28125 0.1875 0.375 0.28125 0.09375 0.09375 0.1875 0.28125 0.28125 0.375 2.34375 2.25 5.25 3.5625 7.96875 5.0625 1.3125 0.75 2.53125 1.96875 3.9375 2.53125 4.40625 1.6875 9.09375 2.625 13.78125 2.625 4.875 0 9.84375-0.9375 14.34375-2.90625 1.5-0.65625 2.71875-1.96875 4.125-2.8125 2.8125-1.6875 5.71875-3 8.15625-5.4375 0.09375-0.09375 0.1875-0.28125 0.28125-0.375 0.09375-0.09375 0.1875-0.1875 0.375-0.28125l526.03125-559.96875C966.678125 242.541875 965.928125 218.823125 950.834375 204.666875z" p-id="1910" fill="#1296db"></path></svg>